<?xml version="1.0" standalone="no"?>
<!DOCTYPE svg PUBLIC "-//W3C//DTD SVG 20010904//EN"
 "http://www.w3.org/TR/2001/REC-SVG-20010904/DTD/svg10.dtd">
<svg version="1.0" xmlns="http://www.w3.org/2000/svg"
 width="95.000000pt" height="95.000000pt" viewBox="0 0 95.000000 95.000000"
 preserveAspectRatio="xMidYMid meet">
<metadata>
Created by potrace 1.14, written by Peter Selinger 2001-2017
</metadata>
<g transform="translate(0.000000,95.000000) scale(0.100000,-0.100000)"
fill="#000000" stroke="none">
<path d="M370 935 c-85 -18 -142 -48 -202 -106 -76 -75 -104 -115 -134 -195
-49 -134 -31 -280 51 -410 34 -53 109 -124 132 -124 7 0 13 -4 13 -9 0 -5 17
-16 38 -26 20 -9 49 -23 65 -30 15 -8 25 -9 22 -4 -8 12 2 11 27 -2 16 -8 19
-8 13 1 -6 9 -3 9 13 1 14 -8 23 -8 27 -1 4 7 11 7 18 2 20 -15 49 -23 41 -11
-4 8 1 9 16 4 17 -5 21 -4 15 6 -6 11 -5 11 4 3 12 -11 27 -9 101 12 14 4 31
11 38 17 7 5 15 7 18 4 6 -6 30 14 120 103 87 85 126 192 123 332 -1 43 -6 81
-11 84 -4 3 -6 10 -3 15 4 5 1 9 -5 9 -6 0 -8 5 -5 10 4 6 1 17 -5 25 -6 8 -9
19 -5 25 3 5 2 10 -2 10 -5 0 -17 18 -26 39 -38 85 -152 174 -264 207 -67 19
-163 23 -233 9z"/>
</g>
</svg>
